<svg xmlns="http://www.w3.org/2000/svg" width="81.568" height="48.937" viewBox="0 0 81.568 48.937"><g transform="translate(-1001.977 -974)"><path d="M3116.823,560.744c2.472,1.764,3.437,4.653,2.154,6.451s-4.328,1.826-6.8.061-3.437-4.653-2.154-6.451S3114.351,558.98,3116.823,560.744Z" transform="translate(-2036 420)" fill="#ccf5d4"/><path d="M3050,562c5.459-10.851,15.577-8.011,37.195-5.505,20.916,2.424,38.222,37.2,12.874,41.113-24.4,3.763-32.306-.912-39.068-8.608C3048.327,574.577,3046.9,568.164,3050,562Z" transform="translate(-2036 420)" fill="#00cc26" opacity="0.2"/><g transform="translate(1211.443 1078.167)"><path d="M-172.655-96.321h6.124a1.726,1.726,0,0,1,1.55,2.485l-7.445,15.2a6.678,6.678,0,0,1-6,3.741H-194.51a6.678,6.678,0,0,1-5.95-3.644l-7.792-15.272a1.726,1.726,0,0,1,1.537-2.511h35.985" fill="none" stroke="#000" stroke-linecap="round" stroke-miterlimit="10" stroke-width="2"/><path d="M-200.788-68.912h26.407A7.214,7.214,0,0,0-168-72.759l14.642-27.749a4.986,4.986,0,0,1,4.408-2.659h5.012" fill="none" stroke="#000" stroke-linecap="round" stroke-miterlimit="10" stroke-width="2"/><circle cx="4.519" cy="4.519" r="4.519" transform="translate(-198.747 -65.268)" fill="none" stroke="#000" stroke-linecap="round" stroke-miterlimit="10" stroke-width="2"/><circle cx="4.519" cy="4.519" r="4.519" transform="translate(-177.319 -65.268)" fill="none" stroke="#000" stroke-linecap="round" stroke-miterlimit="10" stroke-width="2"/></g></g></svg>