<svg xmlns="http://www.w3.org/2000/svg" width="71.842" height="77.732" viewBox="0 0 71.842 77.732"><g transform="translate(-806.158 -1153)"><path d="M2788.019,783.658c-2.62-1.15-6.111-4.248-6.75-7.333-.454-2.188.477-3.852,3.008-4.753,2.973-1.058,7.2,2.676,8.352,5.915.861,2.422,1.011,4.518-.3,5.722A4.256,4.256,0,0,1,2788.019,783.658Z" transform="translate(-1931 425)" fill="#2e3192" opacity="0.2"/><path d="M2758.654,730.069c15.227,5.74,35.756,22.384,40.49,39.731,5.637,20.655-40.147,54.78-52.975,22.928-11.348-28.178-9.653-50.008-7.268-57.441C2741.159,728.254,2750,726.808,2758.654,730.069Z" transform="translate(-1931 425)" fill="#009def"/><circle cx="4" cy="4" r="4" transform="translate(870 1153)" fill="#009def"/><g transform="translate(647.562 1270.591)"><path d="M196.508-84.26a11.693,11.693,0,0,1,9.827,11.291,11.689,11.689,0,0,1-10.213,11.845l.111,5.228a17.393,17.393,0,0,0,2.852-.538l1.643,3.081a1.215,1.215,0,0,0,1.592.636l1.512-.648a1.217,1.217,0,0,0,.636-1.593l-1.1-3.324a16.938,16.938,0,0,0,3.437-2.75l3,1.8a1.215,1.215,0,0,0,1.692-.275l.962-1.334a1.217,1.217,0,0,0-.274-1.693l-2.659-2.28a16.814,16.814,0,0,0,1.519-4.128l3.509,0a1.217,1.217,0,0,0,1.309-1.107l.137-1.64A1.217,1.217,0,0,0,214.889-73l-3.449-.584a16.876,16.876,0,0,0-.79-4.345l2.967-1.787a1.217,1.217,0,0,0,.552-1.624l-.727-1.475a1.216,1.216,0,0,0-1.623-.552l-3.213,1.258a16.988,16.988,0,0,0-2.945-3.329l1.608-3.032a1.215,1.215,0,0,0-.363-1.675l-1.383-.891a1.217,1.217,0,0,0-1.676.363l-2.075,2.693a16.77,16.77,0,0,0-4.273-1.365" fill="none" stroke="#fff" stroke-miterlimit="10" stroke-width="1" opacity="0.41"/><g transform="translate(165.438 -102.591)" fill="none" stroke="#fff" stroke-miterlimit="10" stroke-width="2"><rect width="31.804" height="57.881" rx="4.428" stroke="none"/><rect x="1" y="1" width="29.804" height="55.881" rx="3.428" fill="none"/></g><line x2="21.697" transform="translate(170.428 -54.968)" fill="none" stroke="#fff" stroke-linecap="round" stroke-miterlimit="10" stroke-width="1"/><g transform="translate(179.167 -52.619)" fill="none" stroke="#fff" stroke-miterlimit="10" stroke-width="2"><circle cx="1.93" cy="1.93" r="1.93" stroke="none"/><circle cx="1.93" cy="1.93" r="0.93" fill="none"/></g></g></g></svg>