<svg xmlns="http://www.w3.org/2000/svg" width="67.208" height="65.132" viewBox="0 0 67.208 65.132"><g transform="translate(-707 -954.367)"><path d="M2753.5,561.429c5.459-10.85,19.434-24.781,32.692-26.934,15.787-2.564,37.542,34.091,12.874,41.113-21.823,6.212-37.906,3.242-43.241.889C2750.781,574.271,2750.4,567.592,2753.5,561.429Z" transform="translate(-2036 420)" fill="#0084ff" opacity="0.2"/><g transform="translate(767.741 1073.048)"><path d="M-36.5-104.174H-5.913A6.172,6.172,0,0,1,.259-98v33.031A6.172,6.172,0,0,1-5.913-58.8H-53.568a6.172,6.172,0,0,1-6.173-6.172V-98a6.173,6.173,0,0,1,6.173-6.172h3.235" fill="none" stroke="#000" stroke-miterlimit="10" stroke-width="2"/><g transform="translate(-39.491 -56.174)" fill="none" stroke="#000" stroke-miterlimit="10" stroke-width="2"><rect width="19.5" height="2.625" rx="1.312" stroke="none"/><rect x="1" y="1" width="17.5" height="0.625" rx="0.312" fill="none"/></g><line x2="59.25" transform="translate(-59.366 -67.611)" fill="none" stroke="#000" stroke-miterlimit="10" stroke-width="2"/><rect width="5.5" height="39.838" stroke-width="0.75" fill="none" stroke="#000" stroke-linecap="round" stroke-miterlimit="10" transform="translate(-46 -113.048)"/><path d="M-40-113.048l2.25,3.534v35.951l-2.409.312" fill="none" stroke="#000" stroke-linecap="round" stroke-miterlimit="10" stroke-width="0.75"/><rect width="3.474" height="25.165" stroke-width="0.75" fill="none" stroke="#000" stroke-linecap="round" stroke-miterlimit="10" transform="translate(-35.961 -98.375)"/><rect width="5.166" height="4.882" stroke-width="0.75" fill="none" stroke="#000" stroke-linecap="round" stroke-miterlimit="10" transform="translate(-27.599 -77.675)"/><path d="M-32.171-98.375l1.421,2.232v22.221l-1.522.686" fill="none" stroke="#000" stroke-linecap="round" stroke-miterlimit="10" stroke-width="0.75"/><path d="M-22.271-77.675l1.323.393v4.35l-1.256.161" fill="none" stroke="#000" stroke-linecap="round" stroke-miterlimit="10" stroke-width="0.75"/><circle cx="3.888" cy="3.888" r="3.888" transform="translate(-22.25 -94.5)" fill="none" stroke="#000" stroke-linecap="round" stroke-miterlimit="10" stroke-width="0.75"/></g></g></svg>